<svg height="62.99" viewBox="0 0 186.48 62.99" width="186.48" xmlns="http://www.w3.org/2000/svg"><g fill="#c2c7cd"><path d="m78.46 46.45c-3.08 0-5.14 1.85-5.14 4.56a3.67 3.67 0 0 0 1 2.59 6 6 0 0 0 2.82 1.4l1.6.49c1.92.58 2.85 1.55 2.85 3a2.71 2.71 0 0 1 -1.13 2.27 3.69 3.69 0 0 1 -2.53.7 6.89 6.89 0 0 1 -4.26-1.37l-.83 1.48a9.25 9.25 0 0 0 5.09 1.43 6 6 0 0 0 3.57-1 4.63 4.63 0 0 0 2.2-3.82 4.4 4.4 0 0 0 -1-2.8 5.32 5.32 0 0 0 -2.8-1.6l-1.9-.57c-1.88-.6-2.64-1.32-2.64-2.59 0-1.62 1.2-2.62 3.2-2.62a6.39 6.39 0 0 1 3.87 1.34l.83-1.34a8.37 8.37 0 0 0 -4.79-1.53"/><path d="m88.02 48.4h4.26v14.29h1.83v-14.29h4.31l.12-1.6h-10.52z"/><path d="m103.87 46.8h1.85v15.89h-1.85z"/><path d="m113.13 62.69h1.92v-7.56h5.1v-1.55h-5.1v-5.14h6.14l.3-1.57h-8.36z"/><path d="m125.05 48.4h4.26v14.29h1.83v-14.29h4.3l.12-1.6h-10.51z"/><path d="m140.37 57.89a4.94 4.94 0 0 0 .46 2.78c.74 1.51 2.25 2.29 4.7 2.29a6 6 0 0 0 4.17-1.23c1-.86 1.2-1.62 1.2-3.89v-11h-1.9v10.8a4 4 0 0 1 -.6 2.71 3.43 3.43 0 0 1 -2.8 1c-1.78 0-2.94-.7-3.22-2a14.11 14.11 0 0 1 -.16-2.43v-10.12h-1.88z"/><path d="m158.47 62.69h2l-.09-9.2c0-1.57-.09-3-.21-4.31.33.86 1.07 2.36 1.81 3.8l5.1 9.7h2v-15.84h-1.88l.07 8.62c0 2.08.21 4.82.21 4.82s-.9-2.18-1.48-3.28l-5.28-10.12h-2.2z"/><path d="m181.76 46.66a5.92 5.92 0 0 0 -4.15 1.51c-1.67 1.46-2.46 3.64-2.46 6.67 0 2.73.63 4.7 2 6.16a6.46 6.46 0 0 0 4.85 2 8.57 8.57 0 0 0 4.47-1.2v-7.43h-5.35l.37 1.58h3.2v4.84a4.76 4.76 0 0 1 -2.53.63 4.84 4.84 0 0 1 -3.84-1.69 8.82 8.82 0 0 1 -1.11-4.82 11.83 11.83 0 0 1 .63-4 3.91 3.91 0 0 1 4-2.69 5.7 5.7 0 0 1 3.45 1.23l.86-1.18a6.49 6.49 0 0 0 -4.35-1.57"/></g><path d="m0 .48v37.32h21.74v-6.45h-14.12v-9.98h10.58v-6.13h-10.68v-8.63h14.23v-6.13z" fill="#284256"/><path d="m45.17 5.8a6.75 6.75 0 0 1 6.55 4.72 30 30 0 0 1 1 8.64c0 9.5-2.2 13.48-7.41 13.48a7.36 7.36 0 0 1 -4.45-1.29c-2.26-1.61-3.33-5.64-3.33-12.08 0-4.51.59-7.79 1.88-10.2a6.5 6.5 0 0 1 5.8-3.27m.06-5.8a16.6 16.6 0 0 0 -7.73 1.83c-5.37 3-8.43 9.4-8.43 17.45 0 5.48 1.45 10.2 4.3 13.85s6.49 5.26 12.13 5.26a14.15 14.15 0 0 0 7.46-1.72c5.43-3 8.32-9.29 8.32-17.72 0-11.71-6.12-19-16-19" fill="#00b7b0"/><path d="m71.63.48v26c0 3.6.38 5.1 1.61 7 2.09 3.27 6.28 5 12 5 8.05 0 11.71-4.08 12.67-7 .53-1.61.59-2.31.59-5.85v-25.15h-7.64v23.89a24.71 24.71 0 0 1 -.11 3.33c-.33 2.74-2.42 4.35-5.69 4.35-2.47 0-4.24-.91-5.1-2.58a10.17 10.17 0 0 1 -.65-4.47v-24.52z" fill="#284256"/><path d="m119.19 22.71c.81-2.47 1.29-4.24 2-6.93s1.81-7.19 1.81-7.19 1.12 4.89 1.5 6.61c.81 3.6 2 7.52 2 7.52zm0-22.33-12.29 37.42h7.84l2.63-8.86h10.95l2.68 8.86h8l-11.76-37.42z" fill="#284256"/><path d="m151.42.48-3.49 37.32h7.46l1.29-19.49c.16-2.31.26-4.51.26-6.71.38 2.15 1 4.78 1.51 6.61l5.31 19.6h6.39l5.9-20.4a53.84 53.84 0 0 0 1.4-5.75c0 2 .11 3.86.26 6.23l1.4 19.92h7.35l-3.31-37.33h-9.56l-5 18.52c-.59 2.2-1 4.14-1.34 6.07a59.85 59.85 0 0 0 -1.25-5.91l-5-18.68z" fill="#284256"/><path d="m64 48.53v-5.53c-9.31 1.26-12.76-2.88-22.41-1.73v5.57c8.41-1.12 12.2 3.25 22.41 1.69" fill="#00b7b0"/></svg>